<svg width="40" height="40" viewBox="0 0 40 40" fill="none" xmlns="http://www.w3.org/2000/svg">
<path d="M40 20C40 26.6032 34.6666 32 28 32C21.3968 32 16 26.6032 16 20C16 13.3968 21.3333 8 27.9365 8C34.6666 8 40 13.3968 40 20Z" fill="#FFB600"/>
<path d="M28 8C34.6031 8 40 13.3968 40 20C40 26.6032 34.6666 32 28 32C21.3968 32 16 26.6032 16 20" fill="#F7981D"/>
<path d="M28 8C34.6031 8 40 13.3968 40 20C40 26.6032 34.6666 32 28 32" fill="#FF8500"/>
<path d="M11.873 8C5.33333 8.06349 0 13.3968 0 20C0 26.6032 5.33333 32 12 32C15.1111 32 17.9048 30.7936 20.0635 28.8889C20.5079 28.5079 20.8889 28.0635 21.2698 27.619H18.7937C18.4762 27.2381 18.1587 26.7936 17.9048 26.4127H22.1587C22.4127 26.0317 22.6667 25.5873 22.8571 25.1429H17.2064C17.0159 24.7619 16.8254 24.3175 16.6984 23.873H23.3016C23.6825 22.6667 23.9365 21.3968 23.9365 20.0635C23.9365 19.1746 23.8095 18.3492 23.6825 17.5238H16.3175C16.381 17.0794 16.5079 16.6984 16.6349 16.254H23.2381C23.1111 15.8095 22.9206 15.3651 22.7302 14.9841H17.1429C17.3333 14.5397 17.5873 14.1587 17.8413 13.7143H22.0952C21.8413 13.2698 21.5238 12.8254 21.1429 12.4444H18.7937C19.1746 12 19.5556 11.619 20 11.2381C17.9048 9.26984 15.0476 8.12698 11.9365 8.12698C11.9365 8 11.9365 8 11.873 8Z" fill="#FF5050"/>
<path d="M0 20C0 26.6031 5.33333 32 12 32C15.1111 32 17.9048 30.7936 20.0635 28.8889C20.5079 28.5079 20.8889 28.0635 21.2698 27.619H18.7937C18.4762 27.2381 18.1587 26.7936 17.9048 26.4127H22.1587C22.4127 26.0317 22.6667 25.5873 22.8571 25.1428H17.2064C17.0159 24.7619 16.8254 24.3174 16.6984 23.873H23.3016C23.6825 22.6666 23.9365 21.3968 23.9365 20.0635C23.9365 19.1746 23.8095 18.3492 23.6825 17.5238H16.3175C16.381 17.0793 16.5079 16.6984 16.6349 16.2539H23.2381C23.1111 15.8095 22.9206 15.365 22.7302 14.9841H17.1429C17.3333 14.5397 17.5873 14.1587 17.8413 13.7143H22.0952C21.8413 13.2698 21.5238 12.8254 21.1429 12.4444H18.7937C19.1746 12 19.5556 11.619 20 11.2381C17.9048 9.26981 15.0476 8.12695 11.9365 8.12695H11.873" fill="#E52836"/>
<path d="M12.0001 32C15.1112 32 17.9048 30.7936 20.0636 28.8889C20.508 28.5079 20.889 28.0635 21.2699 27.619H18.7937C18.4763 27.2381 18.1588 26.7936 17.9048 26.4127H22.1588C22.4128 26.0317 22.6667 25.5873 22.8572 25.1428H17.2064C17.0159 24.7619 16.8255 24.3174 16.6985 23.873H23.3017C23.6826 22.6666 23.9366 21.3968 23.9366 20.0635C23.9366 19.1746 23.8096 18.3492 23.6826 17.5238H16.3175C16.381 17.0793 16.508 16.6984 16.635 16.2539H23.2382C23.1112 15.8095 22.9207 15.365 22.7302 14.9841H17.1429C17.3334 14.5397 17.5874 14.1587 17.8413 13.7143H22.0953C21.8413 13.2698 21.5239 12.8254 21.1429 12.4444H18.7937C19.1747 12 19.5556 11.619 20.0001 11.2381C17.9048 9.26981 15.0477 8.12695 11.9366 8.12695H11.8731" fill="#CB2026"/>
<path d="M16.2539 23.0476L16.4443 21.9683C16.3809 21.9683 16.2539 22.0318 16.1269 22.0318C15.6824 22.0318 15.6189 21.7778 15.6824 21.6508L16.0634 19.4286H16.7618L16.9523 18.2222H16.3174L16.4443 17.4603H15.1745C15.1745 17.4603 14.4126 21.6508 14.4126 22.1587C14.4126 22.9206 14.857 23.2381 15.4285 23.2381C15.8094 23.2381 16.1269 23.1111 16.2539 23.0476Z" fill="white"/>
<path d="M16.6985 21.0159C16.6985 22.7937 17.9048 23.2382 18.9207 23.2382C19.8731 23.2382 20.254 23.0477 20.254 23.0477L20.508 21.8413C20.508 21.8413 19.8096 22.1588 19.1746 22.1588C17.7778 22.1588 18.0318 21.1429 18.0318 21.1429H20.635C20.635 21.1429 20.8254 20.3175 20.8254 20.0001C20.8254 19.1747 20.381 18.1588 18.9842 18.1588C17.6508 18.0318 16.6985 19.4286 16.6985 21.0159ZM18.9207 19.1747C19.6191 19.1747 19.4921 20.0001 19.4921 20.0636H18.0953C18.0953 20.0001 18.2223 19.1747 18.9207 19.1747Z" fill="white"/>
<path d="M26.984 23.0476L27.2379 21.6508C27.2379 21.6508 26.603 21.9683 26.1586 21.9683C25.2697 21.9683 24.8887 21.2699 24.8887 20.508C24.8887 18.9842 25.6506 18.1588 26.5395 18.1588C27.1745 18.1588 27.6824 18.5397 27.6824 18.5397L27.8729 17.2064C27.8729 17.2064 27.111 16.8889 26.4126 16.8889C24.9522 16.8889 23.4919 18.1588 23.4919 20.5715C23.4919 22.1588 24.2538 23.2381 25.7776 23.2381C26.2856 23.2381 26.984 23.0476 26.984 23.0476Z" fill="white"/>
<path d="M9.26981 18.0317C8.38092 18.0317 7.746 18.2857 7.746 18.2857L7.55553 19.3651C7.55553 19.3651 8.12696 19.1111 8.95235 19.1111C9.3968 19.1111 9.77775 19.1746 9.77775 19.5555C9.77775 19.8095 9.71426 19.873 9.71426 19.873C9.71426 19.873 9.3333 19.873 9.14283 19.873C8.06346 19.873 6.85712 20.3175 6.85712 21.7778C6.85712 22.9206 7.61902 23.1746 8.06346 23.1746C8.95235 23.1746 9.3333 22.6032 9.3968 22.6032L9.3333 23.1111H10.4762L10.9841 19.619C10.9841 18.0952 9.71426 18.0317 9.26981 18.0317ZM9.52378 20.8889C9.52378 21.0794 9.3968 22.0952 8.63489 22.0952C8.25394 22.0952 8.12696 21.7778 8.12696 21.5873C8.12696 21.2698 8.31743 20.8254 9.26981 20.8254C9.46029 20.8889 9.52378 20.8889 9.52378 20.8889Z" fill="white"/>
<path d="M12.1903 23.1746C12.5078 23.1746 14.0951 23.2381 14.0951 21.5238C14.0951 19.9365 12.5713 20.254 12.5713 19.6191C12.5713 19.3016 12.8253 19.1746 13.2697 19.1746C13.4602 19.1746 14.1586 19.2381 14.1586 19.2381L14.3491 18.0952C14.3491 18.0952 13.9046 17.9683 13.1427 17.9683C12.1903 17.9683 11.2379 18.3492 11.2379 19.6191C11.2379 21.0794 12.8253 20.9524 12.8253 21.5238C12.8253 21.9048 12.3808 21.9683 12.0633 21.9683C11.4919 21.9683 10.9205 21.7778 10.9205 21.7778L10.73 22.9206C10.7935 23.0476 11.111 23.1746 12.1903 23.1746Z" fill="white"/>
<path d="M37.5237 17.0159L37.2697 18.7302C37.2697 18.7302 36.7618 18.0952 36.0634 18.0952C34.9205 18.0952 33.9047 19.4921 33.9047 21.1429C33.9047 22.1587 34.4126 23.2381 35.492 23.2381C36.2539 23.2381 36.6983 22.7302 36.6983 22.7302L36.6348 23.1746H37.9047L38.857 17.0794L37.5237 17.0159ZM36.9523 20.3809C36.9523 21.0794 36.6348 21.9682 35.9364 21.9682C35.492 21.9682 35.238 21.5873 35.238 20.9524C35.238 19.9365 35.6824 19.3016 36.2539 19.3016C36.6983 19.3016 36.9523 19.619 36.9523 20.3809Z" fill="white"/>
<path d="M2.34914 23.1111L3.11105 18.5397L3.23803 23.1111H4.12692L5.77771 18.5397L5.0793 23.1111H6.41263L7.42851 17.0159H5.33327L4.06343 20.7619L3.99993 17.0159H2.15866L1.14279 23.1111H2.34914Z" fill="white"/>
<path d="M22.0317 23.1111C22.4126 21.0158 22.4761 19.3015 23.365 19.619C23.492 18.7936 23.6824 18.4762 23.8094 18.1587C23.8094 18.1587 23.7459 18.1587 23.5555 18.1587C22.984 18.1587 22.5396 18.9206 22.5396 18.9206L22.6666 18.2222H21.4602L20.6348 23.1746H22.0317V23.1111Z" fill="white"/>
<path d="M29.9046 18.0317C29.0158 18.0317 28.3808 18.2857 28.3808 18.2857L28.1904 19.3651C28.1904 19.3651 28.7618 19.1111 29.5872 19.1111C30.0316 19.1111 30.4126 19.1746 30.4126 19.5555C30.4126 19.8095 30.3491 19.873 30.3491 19.873C30.3491 19.873 29.9681 19.873 29.7777 19.873C28.6983 19.873 27.4919 20.3175 27.4919 21.7778C27.4919 22.9206 28.2538 23.1746 28.6983 23.1746C29.5872 23.1746 29.9681 22.6032 30.0316 22.6032L29.9681 23.1111H31.111L31.6189 19.619C31.6824 18.0952 30.3491 18.0317 29.9046 18.0317ZM30.2221 20.8889C30.2221 21.0794 30.0951 22.0952 29.3332 22.0952C28.9523 22.0952 28.8253 21.7778 28.8253 21.5873C28.8253 21.2698 29.0158 20.8254 29.9681 20.8254C30.1586 20.8889 30.1586 20.8889 30.2221 20.8889Z" fill="white"/>
<path d="M32.6983 23.1111C33.0792 21.0158 33.1427 19.3015 34.0316 19.619C34.1586 18.7936 34.3491 18.4762 34.4761 18.1587C34.4761 18.1587 34.4126 18.1587 34.2221 18.1587C33.6507 18.1587 33.2062 18.9206 33.2062 18.9206L33.3332 18.2222H32.1268L31.3015 23.1746H32.6983V23.1111Z" fill="white"/>
<path d="M14.2857 22.1587C14.2857 22.9206 14.7301 23.2381 15.3015 23.2381C15.746 23.2381 16.1269 23.1111 16.2539 23.0476L16.4444 21.9683C16.3809 21.9683 16.2539 22.0318 16.1269 22.0318C15.6825 22.0318 15.619 21.7778 15.6825 21.6508L16.0635 19.4286H16.7619L16.9523 18.2222H16.3174L16.4444 17.4603" fill="#DCE5E5"/>
<path d="M17.3333 21.0159C17.3333 22.7937 17.9047 23.2382 18.9206 23.2382C19.8729 23.2382 20.2539 23.0477 20.2539 23.0477L20.5079 21.8413C20.5079 21.8413 19.8094 22.1588 19.1745 22.1588C17.7777 22.1588 18.0317 21.1429 18.0317 21.1429H20.6348C20.6348 21.1429 20.8253 20.3175 20.8253 20.0001C20.8253 19.1747 20.3809 18.1588 18.984 18.1588C17.6507 18.0318 17.3333 19.4286 17.3333 21.0159ZM18.9206 19.1747C19.619 19.1747 19.7459 20.0001 19.7459 20.0636H18.0952C18.0952 20.0001 18.2221 19.1747 18.9206 19.1747Z" fill="#DCE5E5"/>
<path d="M26.9841 23.0476L27.2381 21.6508C27.2381 21.6508 26.6032 21.9683 26.1587 21.9683C25.2698 21.9683 24.8889 21.2699 24.8889 20.508C24.8889 18.9842 25.6508 18.1588 26.5397 18.1588C27.1746 18.1588 27.6825 18.5397 27.6825 18.5397L27.873 17.2064C27.873 17.2064 27.1111 16.8889 26.4127 16.8889C24.9524 16.8889 24.127 18.1588 24.127 20.5715C24.127 22.1588 24.254 23.2381 25.7778 23.2381C26.2857 23.2381 26.9841 23.0476 26.9841 23.0476Z" fill="#DCE5E5"/>
<path d="M7.55553 19.4285C7.55553 19.4285 8.12696 19.1746 8.95235 19.1746C9.3968 19.1746 9.77775 19.2381 9.77775 19.619C9.77775 19.873 9.71426 19.9365 9.71426 19.9365C9.71426 19.9365 9.3333 19.9365 9.14283 19.9365C8.06346 19.9365 6.85712 20.3809 6.85712 21.8412C6.85712 22.9841 7.61902 23.238 8.06346 23.238C8.95235 23.238 9.3333 22.6666 9.3968 22.6666L9.3333 23.1746H10.4762L10.9841 19.6825C10.9841 18.2222 9.71426 18.1587 9.20632 18.1587L7.55553 19.4285ZM10.1587 20.8888C10.1587 21.0793 9.3968 22.0952 8.63489 22.0952C8.25394 22.0952 8.12696 21.7777 8.12696 21.5873C8.12696 21.2698 8.31743 20.8254 9.26981 20.8254C9.46029 20.8888 10.1587 20.8888 10.1587 20.8888Z" fill="#DCE5E5"/>
<path d="M10.7935 23.0476C10.7935 23.0476 11.1744 23.1746 12.2538 23.1746C12.5713 23.1746 14.1586 23.2381 14.1586 21.5238C14.1586 19.9365 12.6348 20.254 12.6348 19.6191C12.6348 19.3016 12.8887 19.1746 13.3332 19.1746C13.5236 19.1746 14.2221 19.2381 14.2221 19.2381L14.4125 18.0952C14.4125 18.0952 13.9681 17.9683 13.2062 17.9683C12.2538 17.9683 11.9363 18.3492 11.9363 19.6191C11.9363 21.0794 12.8887 20.9524 12.8887 21.5238C12.8887 21.9048 12.4443 21.9683 12.1268 21.9683" fill="#DCE5E5"/>
<path d="M37.2698 18.7301C37.2698 18.7301 36.7619 18.0952 36.0635 18.0952C34.9206 18.0952 34.5396 19.492 34.5396 21.1428C34.5396 22.1587 34.4127 23.2381 35.492 23.2381C36.2539 23.2381 36.6984 22.7301 36.6984 22.7301L36.6349 23.1746H37.9047L38.8571 17.0793L37.2698 18.7301ZM37.2063 20.3809C37.2063 21.0793 36.6349 21.9682 35.9365 21.9682C35.492 21.9682 35.2381 21.5873 35.2381 20.9524C35.2381 19.9365 35.6825 19.3016 36.2539 19.3016C36.6984 19.3016 37.2063 19.619 37.2063 20.3809Z" fill="#DCE5E5"/>
<path d="M2.34914 23.1111L3.11105 18.5397L3.23803 23.1111H4.12692L5.77771 18.5397L5.0793 23.1111H6.41263L7.42851 17.0159H5.8412L4.06343 20.7619L3.99993 17.0159H3.30152L1.14279 23.1111H2.34914Z" fill="#DCE5E5"/>
<path d="M20.6983 23.1111H22.0316C22.4126 21.0158 22.476 19.3015 23.3649 19.619C23.4919 18.7936 23.6824 18.4762 23.8094 18.1587C23.8094 18.1587 23.7459 18.1587 23.5554 18.1587C22.984 18.1587 22.5395 18.9206 22.5395 18.9206L22.6665 18.2222" fill="#DCE5E5"/>
<path d="M28.1904 19.4285C28.1904 19.4285 28.7618 19.1746 29.5872 19.1746C30.0316 19.1746 30.4126 19.2381 30.4126 19.619C30.4126 19.873 30.3491 19.9365 30.3491 19.9365C30.3491 19.9365 29.9681 19.9365 29.7777 19.9365C28.6983 19.9365 27.4919 20.3809 27.4919 21.8412C27.4919 22.9841 28.2538 23.238 28.6983 23.238C29.5872 23.238 29.9681 22.6666 30.0316 22.6666L29.9681 23.1746H31.111L31.6189 19.6825C31.6189 18.2222 30.3491 18.1587 29.8411 18.1587L28.1904 19.4285ZM30.7935 20.8888C30.7935 21.0793 30.0316 22.0952 29.2697 22.0952C28.8888 22.0952 28.7618 21.7777 28.7618 21.5873C28.7618 21.2698 28.9523 20.8254 29.9046 20.8254C30.1586 20.8888 30.7935 20.8888 30.7935 20.8888Z" fill="#DCE5E5"/>
<path d="M31.365 23.1111H32.6983C33.0793 21.0158 33.1428 19.3015 34.0317 19.619C34.1586 18.7936 34.3491 18.4762 34.4761 18.1587C34.4761 18.1587 34.4126 18.1587 34.2221 18.1587C33.6507 18.1587 33.2063 18.9206 33.2063 18.9206L33.3332 18.2222" fill="#DCE5E5"/>
</svg>
