<?xml version="1.0" standalone="no"?> <!DOCTYPE svg PUBLIC "-//W3C//DTD SVG 1.0//EN" "http://www.w3.org/TR/2001/REC-SVG-20010904/DTD/svg10.dtd" > <svg xmlns="http://www.w3.org/2000/svg" width="100%" height="100%">
<defs >
<font horiz-adv-x="1000" ><font-face
    font-family="Ribbon131 Bd BT [Rus by me]"
    units-per-em="2048"
    panose-1="3 2 6 2 4 6 6 7 3 6"
    ascent="1890"
    descent="-483"
    alphabetic="0" />
<missing-glyph horiz-adv-x="1229" d="M102 -362V1444H1126V-362H102ZM217 -248H1012V1329H217V-248Z" />
<glyph unicode=" " glyph-name="CR" horiz-adv-x="410" />
<glyph unicode="!" glyph-name="exclam" horiz-adv-x="410" d="M-137 74Q-137 108 -114 131T-57 154Q-23 154 1 131T25 74Q25 40 1 17T-57 -6Q-91 -6 -114 17T-137 74ZM2 401L244 1413L406 1464L27 401H2Z" />
<glyph unicode="&quot;" glyph-name="quotedbl" horiz-adv-x="672" d="M514 868H483L422 1323Q419 1341 419 1349T418 1366Q418 1412 439 1437T500 1462Q538 1462 559 1437T580 1364Q580 1351 576 1327Q576 1325 575 1323L514 868ZM188 868H158L96 1323Q96 1325
96 1327Q92 1351 92 1364Q92 1411 112 1436T172 1462Q211 1462 232 1437T254 1366Q254 1355 251 1330Q250 1325 250 1323L188 868Z" />
<glyph unicode="#" glyph-name="numbersign" horiz-adv-x="1575" d="M700 872L596 578H891L995 872H700ZM793 1454H907L735 971H1030L1202 1454H1315L1143 971H1458L1423 872H1108L1006 578H1346L1309 479H969L799 0H686L856 479H563L391 0H279L449 479H117L154
578H483L588 872H229L264 971H623L793 1454Z" />
<glyph unicode="$" glyph-name="dollar" horiz-adv-x="819" d="M238 508L323 813Q220 810 159 766T98 651Q98 602 131 568T238 508ZM137 41Q253 53 322 108T391 244Q391 287 356 318T236 379L137 41ZM131 6L76 -188H45L96 0Q94 0 90 1T84 2Q12 2 -64 18T-223 68L-162
152Q-106 109 -38 81T106 41L205 389Q104 428 61 472T18 582Q18 681 108 762T338 864L381 1024H416L371 870Q436 870 492 861T594 834L553 748Q501 779 454 794T357 813L266 500Q382 455 429 409T477 299Q477 192 378 106T131 6Z" />
<glyph unicode="%" glyph-name="percent" horiz-adv-x="1235" d="M817 489Q785 489 756 471T702 418Q657 353 629 268T600 111Q600 62 622 33T680 4Q713 4 744 24T801 84Q843 145 871 232T899 385Q899 438 879 463T817 489ZM508 170Q508 300 603 408T809 516Q887
516 935 463T983 324Q983 191 891 84T684 -23Q603 -23 556 29T508 170ZM4 465Q4 411 25 382T86 352Q118 352 154 376T215 442Q249 497 274 584T299 731Q299 781 278 810T221 840Q145 840 75 719T4 465ZM160 -186L100 -188L633 838Q584 811 538 798T446 784Q427
784 403 788T346 801Q365 769 375 735T385 662Q385 535 292 431T88 326Q13 326 -36 380T-86 518Q-86 570 -67 625T-12 731Q29 791 91 828T209 866Q237 866 314 842T440 817Q500 817 561 841T684 913H727L160 -186Z" />
<glyph unicode="&amp;" glyph-name="ampersand" horiz-adv-x="1571" d="M688 406H647Q651 540 735 605T989 670Q1015 670 1027 670T1052 668L1214 657Q1221 657 1232 656T1249 655Q1336 655 1381 683T1427 764Q1427 784 1421 803T1401 840H1466V831Q1466 694 1386
623T1151 551Q1126 551 1113 551T1090 553Q1095 527 1097 505T1100 463Q1100 396 1075 336T997 221Q900 116 749 53T444 -10Q229 -10 97 85T-35 332Q-35 439 32 518T240 659Q277 675 336 696Q408 722 408 735Q408 752 352 761Q317 767 295 772Q196 795 155 836T113
950Q113 1045 187 1130T410 1292Q493 1335 574 1357T723 1380Q811 1380 860 1342T909 1235Q909 1192 883 1139T786 995L688 1032Q762 1111 799 1168T836 1262Q836 1299 805 1324T727 1350Q644 1350 556 1313T395 1210Q326 1149 284 1070T242 928Q242 876 273 844T383
786Q397 782 422 775Q530 745 530 696Q530 629 403 573Q389 567 381 563Q226 496 166 433T106 279Q106 163 199 93T449 23Q567 23 675 62T870 176Q941 236 981 303T1022 426Q1022 500 974 550T854 600Q779 600 733 558T686 446Q686 430 686 422T688 406Z" />
<glyph unicode="&apos;" glyph-name="quotesingle" horiz-adv-x="346" d="M188 868H158L96 1323Q96 1325 96 1327Q92 1351 92 1364Q92 1411 112 1436T172 1462Q211 1462 231 1438T252 1366Q252 1350 252 1341T250 1324L188 868Z" />
<glyph unicode="(" glyph-name="parenleft" horiz-adv-x="895" d="M760 1454Q501 1069 361 658T221 -125Q221 -187 226 -261T244 -430L223 -434Q176 -294 153 -155T129 131Q129 467 281 799T743 1468L760 1454Z" />
<glyph unicode=")" glyph-name="parenright" horiz-adv-x="895" d="M-223 -420Q35 -37 174 375T313 1159Q313 1221 308 1295T291 1464L311 1468Q360 1326 384 1186T408 901Q408 566 256 235T-207 -434L-223 -420Z" />
<glyph unicode="*" glyph-name="asterisk" horiz-adv-x="674" d="M227 1057L172 1130L295 1249L135 1300L193 1366L322 1298L336 1446L428 1464L381 1294L530 1333L567 1255L379 1237L475 1096L410 1042L332 1210L227 1057Z" />
<glyph unicode="+" glyph-name="plus" horiz-adv-x="1706" d="M805 1221H903V659H1452V561H903V0H805V561H254V659H805V1221Z" />
<glyph unicode="," glyph-name="comma" horiz-adv-x="410" d="M-172 -248L-193 -227Q-122 -171 -79 -116T-16 -4Q-19 -5 -23 -5T-37 -6Q-72 -6 -95 17T-119 74Q-119 108 -96 131T-39 154Q-3 154 20 129T43 63Q43 0 -15 -84T-172 -248Z" />
<glyph unicode="-" glyph-name="hyphen" horiz-adv-x="446" d="M-186 188L-160 272H135L109 188H-186Z" />
<glyph unicode="." glyph-name="period" horiz-adv-x="410" d="M-119 74Q-119 108 -96 131T-39 154Q-5 154 18 131T41 74Q41 40 18 17T-39 -6Q-73 -6 -96 17T-119 74Z" />
<glyph unicode="/" glyph-name="slash" horiz-adv-x="373" d="M420 1464H479L-293 -190H-352L420 1464Z" />
<glyph unicode="0" glyph-name="zero" horiz-adv-x="819" d="M344 848Q291 848 240 814T145 713Q79 613 41 483T2 223Q2 130 41 80T152 29Q213 29 265 70T373 205Q425 292 457 412T489 639Q489 743 453 795T344 848ZM-129 307Q-129 392 -100 480T-12 657Q58 766
149 824T340 883Q468 883 544 795T621 557Q621 461 578 353T461 156Q394 77 314 36T150 -6Q24 -6 -52 79T-129 307Z" />
<glyph unicode="1" glyph-name="one" horiz-adv-x="819" d="M240 39L92 -8L309 758L137 567L117 586L365 877L463 885L240 39Z" />
<glyph unicode="2" glyph-name="two" horiz-adv-x="819" d="M453 154L381 14H199Q177 14 136 15T74 16Q-3 16 -79 13T-231 4L-229 33Q106 217 270 379T434 690Q434 762 396 805T295 848Q223 848 159 776T45 565L-84 598Q-14 738 82 810T297 883Q419 883 494 820T569
653Q569 538 445 424T-10 135L453 154Z" />
<glyph unicode="3" glyph-name="three" horiz-adv-x="819" d="M-197 29L-174 156Q-100 90 -30 58T106 25Q211 25 290 95T369 256Q369 332 299 378T109 426L111 440Q280 479 360 543T440 705Q440 768 403 807T303 846Q225 846 163 789T59 625L-45 678Q45 780 139
829T338 879Q439 879 503 830T567 707Q567 631 491 568T271 461Q382 452 440 407T498 285Q498 171 372 81T74 -10Q0 -10 -66 -1T-197 29Z" />
<glyph unicode="4" glyph-name="four" horiz-adv-x="819" d="M352 199L295 -23L154 -74L229 197L-186 182L274 886Q283 897 305 903T370 913L-78 281L256 291L369 739L512 803L379 295L518 301L494 205L352 199Z" />
<glyph unicode="5" glyph-name="five" horiz-adv-x="819" d="M-231 41L-203 152Q-150 95 -91 65T31 35Q169 35 260 129T352 369Q352 445 315 486T209 528Q152 528 99 504T2 432L-29 436L133 870H596L553 743H121L31 500Q86 533 141 550T250 567Q353 567 421 505T489
348Q489 200 352 100T6 0Q-43 0 -100 10T-231 41Z" />
<glyph unicode="6" glyph-name="six" horiz-adv-x="819" d="M184 453Q184 468 232 485T334 502Q421 502 475 448T530 307Q530 185 416 90T152 -6Q34 -6 -34 61T-102 244Q-102 364 -20 493T213 737Q325 822 404 870T512 918Q521 917 522 916T524 911Q524 895 441
839T295 721Q168 597 100 461T31 199Q31 122 65 76T156 29Q245 29 319 124T393 334Q393 389 361 422T276 455Q242 455 204 446Q196 444 195 444Q190 445 188 447T184 453Z" />
<glyph unicode="7" glyph-name="seven" horiz-adv-x="819" d="M41 14L-94 0L465 752H-82L-23 870L575 868L41 14Z" />
<glyph unicode="8" glyph-name="eight" horiz-adv-x="819" d="M313 479Q403 515 451 569T500 688Q500 758 446 805T311 852Q237 852 184 806T131 694Q131 643 174 592T313 479ZM190 418Q87 382 29 321T-29 186Q-29 122 34 78T193 33Q274 33 338 83T403 193Q403
272 195 415Q192 417 190 418ZM166 436Q90 487 55 536T20 643Q20 737 114 811T334 885Q446 885 517 830T588 688Q588 621 535 572T338 463Q436 396 479 340T522 223Q522 126 424 60T178 -6Q50 -6 -31 48T-113 186Q-113 265 -42 329T166 436Z" />
<glyph unicode="9" glyph-name="nine" horiz-adv-x="819" d="M-23 -57Q-23 -47 68 22T231 174Q346 305 411 441T477 680Q477 759 436 804T324 850Q222 850 147 758T72 537Q72 461 108 416T205 371Q215 371 233 375T262 379Q273 379 278 376T285 367Q285 352 251
342T162 332Q64 332 -1 392T-66 545Q-66 680 48 783T315 887Q452 887 528 823T604 643Q604 518 528 392T293 131Q197 49 107 -8T-6 -66Q-15 -66 -19 -64T-23 -57Z" />
<glyph unicode=":" glyph-name="colon" horiz-adv-x="410" d="M-86 369Q-86 402 -63 425T-6 449Q28 449 51 426T74 369Q74 335 51 312T-6 289Q-40 289 -63 312T-86 369ZM-166 74Q-166 108 -143 131T-86 154Q-52 154 -28 131T-4 74Q-4 40 -28 17T-86 -6Q-120 -6
-143 17T-166 74Z" />
<glyph unicode=";" glyph-name="semicolon" horiz-adv-x="410" d="M-219 -248L-238 -227Q-169 -172 -126 -117T-63 -4Q-65 -5 -70 -5T-84 -6Q-119 -6 -142 17T-166 74Q-166 107 -144 130T-88 154Q-51 154 -28 129T-4 63Q-4 0 -62 -84T-219 -248ZM-86 369Q-86 402
-63 425T-6 449Q28 449 51 426T74 369Q74 335 51 312T-6 289Q-40 289 -63 312T-86 369Z" />
<glyph unicode="&lt;" glyph-name="less" horiz-adv-x="1706" d="M1442 1135V1026L420 610L1442 197V88L264 569V651L1442 1135Z" />
<glyph unicode="=" glyph-name="equal" horiz-adv-x="1706" d="M254 473H1452V375H254V473ZM254 846H1452V748H254V846Z" />
<glyph unicode="&gt;" glyph-name="greater" horiz-adv-x="1706" d="M264 1135L1442 651V569L264 88V197L1286 610L264 1026V1135Z" />
<glyph unicode="?" glyph-name="question" horiz-adv-x="567" d="M-106 80Q-106 114 -83 138T-27 162Q7 162 30 138T53 80Q53 46 30 23T-27 0Q-60 0 -83 23T-106 80ZM43 528V535Q43 627 88 722T254 965Q281 997 331 1057Q520 1281 520 1362Q520 1394 501 1412T449
1430Q394 1430 314 1345T152 1114L82 1200Q154 1327 243 1396T420 1466Q495 1466 539 1420T584 1294Q584 1204 524 1111T291 856Q278 844 252 820Q71 654 66 529L43 528Z" />
<glyph unicode="@" glyph-name="at" horiz-adv-x="2019" d="M1192 340Q1133 234 1054 180T881 125Q760 125 685 217T610 461Q610 567 659 674T797 868Q864 934 941 970T1092 1006Q1178 1006 1234 955T1313 807L1368 989H1499L1329 383Q1318 344 1315 322T1311
279Q1311 225 1337 197T1411 168Q1458 168 1519 198T1634 279Q1727 367 1779 498T1831 776Q1831 1060 1637 1233T1126 1407Q950 1407 798 1349T526 1178Q393 1052 325 882T256 506Q256 330 312 202T489 -31Q605 -131 753 -182T1075 -233Q1242 -233 1398 -180T1692
-25L1722 -59Q1575 -168 1411 -223T1069 -279Q880 -279 729 -233T455 -94Q304 21 226 181T147 537Q147 741 233 917T483 1229Q615 1339 773 1394T1114 1450Q1459 1450 1666 1263T1874 766Q1874 609 1816 471T1651 236Q1592 181 1528 153T1397 125Q1301 125 1250
179T1192 340ZM1094 969Q1038 969 993 938T899 836Q826 725 783 600T739 379Q739 283 782 227T897 170Q964 170 1026 214T1145 348Q1202 439 1236 547T1270 748Q1270 843 1220 906T1094 969Z" />
<glyph unicode="A" glyph-name="A" horiz-adv-x="1460" d="M1001 426L1200 1053Q1236 1166 1258 1259T1280 1380Q1280 1397 1274 1407T1257 1417Q1239 1417 1213 1391T1145 1303L782 756Q719 662 669 590T580 467Q641 445 739 436T1001 426ZM989 391Q884 393 799
399T647 416Q712 346 769 253T877 45L989 391ZM-502 23L-434 98Q-358 75 -296 63T-182 51Q47 51 278 229T756 776L1077 1255Q1171 1395 1214 1432T1303 1470Q1346 1470 1367 1439T1389 1346Q1389 1193 1248 757Q1218 664 1202 614L1143 430Q1162 431 1198 432Q1270
433 1306 436L1303 404Q1234 398 1198 396T1131 393L1001 0H862Q793 174 718 284T559 442Q360 207 161 100T-274 -8Q-330 -8 -386 -1T-502 23Z" />
<glyph unicode="B" glyph-name="B" horiz-adv-x="1235" d="M330 975Q218 879 127 759T-27 504Q-91 368 -123 261T-156 76Q-156 63 -152 56T-139 49Q-85 49 52 313T330 975ZM111 6L236 127Q332 105 409 94T541 82Q688 82 775 142T862 301Q862 356 831 401T737 481L612
551Q586 566 570 587T553 627Q553 668 678 742T881 879Q1005 978 1069 1081T1133 1282Q1133 1343 1098 1377T1001 1411Q920 1411 798 1342T539 1147Q374 633 181 310T-137 -14Q-160 -14 -172 19T-184 113Q-184 313 -44 556T358 1049L469 1413L635 1464L557 1206Q705
1335 841 1402T1090 1470Q1187 1470 1242 1421T1298 1284Q1298 1194 1239 1102T1069 928Q952 840 815 773T678 690Q678 673 731 649T819 604Q896 556 928 506T961 385Q961 209 778 104T281 -2Q235 -2 193 0T111 6Z" />
<glyph unicode="C" glyph-name="C" horiz-adv-x="1161" d="M889 178V141Q735 59 607 20T371 -20Q151 -20 33 88T-86 397Q-86 604 22 810T332 1192Q500 1339 675 1419T1006 1499Q1081 1499 1124 1464T1167 1368Q1167 1239 1046 1122T709 928L741 1059Q916 1129
1016 1216T1116 1384Q1116 1424 1087 1446T1004 1468Q906 1468 791 1417T565 1274Q346 1089 211 846T76 403Q76 230 168 134T426 37Q516 37 627 71T889 178Z" />
<glyph unicode="D" glyph-name="D" horiz-adv-x="1790" d="M610 186Q801 126 903 103T1069 80Q1251 80 1354 189T1458 492Q1458 688 1357 866T1061 1186L1036 1104Q917 703 824 508T610 186ZM428 100Q351 127 282 140T150 154Q61 154 8 132T-45 74Q-45 42 5 22T137
2Q217 2 289 26T428 100ZM492 78Q410 23 324 -5T150 -33Q33 -33 -32 2T-98 98Q-98 167 -10 212T217 258Q292 258 369 248T530 215Q622 339 720 561T903 1059L963 1253Q794 1351 660 1398T416 1446Q320 1446 264 1406T207 1300Q207 1228 274 1139T475 944L348 903Q236
1006 182 1092T127 1255Q127 1360 213 1419T455 1479Q563 1479 696 1440T979 1327L1006 1409L1128 1442L1085 1272Q1318 1128 1442 949T1567 580Q1567 328 1383 159T922 -10Q830 -10 724 11T492 78Z" />
<glyph unicode="E" glyph-name="E" horiz-adv-x="1163" d="M899 236L872 92Q707 38 582 13T354 -12Q139 -12 25 75T-90 328Q-90 464 13 587T330 827L405 870Q408 872 414 875Q455 896 455 909Q455 913 453 917T449 925L397 1014Q382 1041 375 1062T367 1104Q367
1171 406 1232T528 1352Q619 1417 724 1452T934 1487Q1038 1487 1087 1441T1137 1298Q1137 1261 1122 1205T1075 1073L956 1055Q1024 1207 1046 1274T1069 1378Q1069 1418 1041 1439T956 1460Q900 1460 831 1431T690 1348Q585 1267 521 1178T457 1028Q457 967 507
893T557 809Q557 783 471 738Q418 710 385 690Q193 574 97 463T0 246Q0 145 75 89T285 33Q401 33 551 82T899 236Z" />
<glyph unicode="F" glyph-name="F" horiz-adv-x="1233" d="M-221 76L-158 160Q-52 93 51 60T254 27Q407 27 525 123T743 426H455L471 471H762Q808 592 843 693T903 877L1038 1325Q922 1336 820 1342T625 1348Q344 1348 194 1312T43 1208Q43 1144 160 1098T479
1038L410 946Q230 966 123 1035T16 1196Q16 1321 213 1389T772 1458Q878 1458 985 1455T1204 1446L1178 1331Q1127 1115 1060 900T907 471H1087L1073 426H887Q787 211 621 101T231 -10Q129 -10 17 11T-221 76Z" />
<glyph unicode="G" glyph-name="G" horiz-adv-x="1235" d="M-47 -416L-31 -301Q67 -365 154 -396T322 -428Q448 -428 530 -343T670 -70L717 90Q634 45 551 23T383 0Q173 0 42 123T-90 442Q-90 623 23 823T334 1188Q490 1318 674 1396T997 1475Q1096 1475 1148
1434T1200 1313Q1200 1222 1124 1109T913 893L819 956Q982 1083 1060 1180T1139 1354Q1139 1396 1104 1420T1008 1444Q909 1444 783 1387T532 1229Q312 1049 183 825T53 403Q53 235 146 136T395 37Q477 37 561 68T739 166Q759 306 821 374T989 442H993Q953 374
927 316T887 201L831 -8Q773 -239 639 -353T289 -467Q214 -467 131 -454T-47 -416Z" />
<glyph unicode="H" glyph-name="H" horiz-adv-x="1530" d="M1063 395Q934 395 825 406T621 440Q738 368 824 280T963 88L1063 395ZM-510 100L-432 176Q-331 101 -240 66T-55 31Q115 31 254 172T473 569L727 1389L887 1436L633 618Q623 590 611 555T584 483Q676
458 779 445T997 432Q1011 432 1037 433T1077 434L1386 1425L1552 1481L1215 434Q1251 436 1289 439T1366 446L1356 406Q1329 402 1294 399T1202 391L1079 0H965Q914 129 815 237T565 436Q460 217 300 107T-72 -4Q-184 -4 -293 22T-510 100Z" />
<glyph unicode="I" glyph-name="I" horiz-adv-x="1047" d="M639 506Q736 761 789 973T842 1315Q842 1385 826 1416T774 1448Q675 1448 584 1259T492 823Q492 715 528 637T639 506ZM-319 88L-244 176Q-130 102 -32 65T145 27Q294 27 416 140T627 475Q502 547 441
650T379 891Q379 1026 427 1150T565 1368Q615 1420 671 1449T778 1479Q863 1479 912 1403T961 1194Q961 1052 912 865T768 459Q796 452 826 448T887 444L879 412Q850 412 820 416T756 428Q651 207 495 100T123 -8Q12 -8 -97 16T-319 88Z" />
<glyph unicode="J" glyph-name="J" horiz-adv-x="971" d="M485 358Q170 303 -33 120T-236 -276Q-236 -338 -198 -379T-102 -420Q23 -420 178 -215T485 358ZM430 621Q388 719 368 804T348 969Q348 1074 382 1180T477 1370Q517 1426 558 1452T645 1479Q722 1479
772 1392T823 1165Q823 1053 795 909T715 608L662 449Q691 453 723 456T790 461L774 397Q769 397 758 396Q670 387 643 381Q501 -12 305 -241T-78 -471Q-169 -471 -218 -418T-268 -268Q-268 -43 -49 156T514 424Q617 751 662 950T707 1272Q707 1357 684 1403T621
1450Q552 1450 490 1319T428 1016Q428 938 447 861T504 705L430 621Z" />
<glyph unicode="K" glyph-name="K" horiz-adv-x="1606" d="M1214 -4L823 573L1542 1462H1692L932 672L1319 106L1214 -4ZM-463 57L-369 156Q-260 100 -162 72T23 43Q272 43 449 271T743 973L854 1415L1034 1477L858 831Q792 592 718 458T528 223Q403 113 246 57T-92
0Q-187 0 -278 14T-463 57Z" />
<glyph unicode="L" glyph-name="L" horiz-adv-x="1274" d="M356 145Q240 195 144 221T-16 248Q-109 248 -166 214T-223 125Q-223 69 -168 38T-14 6Q78 6 172 41T356 145ZM1006 109L958 0Q855 2 725 31T432 119Q323 46 213 10T-8 -27Q-135 -27 -207 18T-279 141Q-279
225 -192 282T27 340Q102 340 205 314T438 236Q478 295 507 359T555 494L629 766Q724 1116 857 1297T1153 1479Q1236 1479 1282 1419T1329 1249Q1329 1193 1311 1119T1253 942L1120 920Q1177 1048 1206 1148T1235 1317Q1235 1388 1214 1418T1143 1448Q1067 1448
987 1320T831 952L762 735Q758 723 751 700Q660 407 514 209Q623 166 746 141T1006 109Z" />
<glyph unicode="M" glyph-name="M" horiz-adv-x="1911" d="M100 0Q283 588 362 904T442 1352Q442 1391 430 1412T393 1434Q342 1434 267 1306T72 889L-25 975Q109 1253 205 1359T408 1466Q478 1466 515 1404T553 1227Q553 1118 495 892T279 168Q568 862 755 1167T1077
1473Q1146 1473 1183 1427T1221 1296Q1221 1231 1190 1116T1059 715L1030 632Q891 232 891 176Q891 166 892 164T897 162Q932 162 1119 601Q1164 707 1190 766Q1352 1145 1470 1309T1696 1473Q1758 1473 1791 1423T1825 1278Q1825 1120 1677 636T1458 -129L1331
-61Q1419 281 1570 760T1722 1350Q1722 1390 1709 1412T1669 1434Q1591 1434 1479 1264T1217 745L1202 711Q893 -4 797 -4Q776 -4 766 12T756 63Q756 144 791 283T946 782Q1043 1070 1075 1190T1108 1370Q1108 1402 1096 1418T1057 1434Q944 1434 737 1070T242
0H100Z" />
<glyph unicode="N" glyph-name="N" horiz-adv-x="1348" d="M66 0L332 864Q413 1125 439 1233T465 1399Q465 1412 454 1422T426 1432Q364 1432 269 1283T49 840L-31 954Q92 1199 217 1331T451 1464Q500 1464 528 1425T557 1317Q557 1214 506 1004T365 528L240 162Q559
891 762 1184T1139 1477Q1208 1477 1247 1437T1286 1327Q1286 1290 1272 1224T1231 1067L881 -125L745 -51L1087 1042Q1123 1156 1141 1233T1159 1352Q1159 1391 1143 1412T1098 1434Q954 1434 727 1067T211 0H66Z" />
<glyph unicode="O" glyph-name="O" horiz-adv-x="1454" d="M1178 991Q1178 1192 1079 1312T813 1432Q709 1432 611 1387T422 1253Q270 1105 181 893T92 471Q92 278 198 156T471 33Q601 33 736 124T981 377Q1075 517 1126 676T1178 991ZM-59 551Q-59 738 28 923T270
1247Q389 1353 528 1408T815 1464Q1053 1464 1196 1315T1339 922Q1339 759 1268 592T1069 285Q933 138 781 65T461 -8Q216 -8 79 140T-59 551Z" />
<glyph unicode="P" glyph-name="P" horiz-adv-x="1122" d="M-199 -334L-330 -256Q-173 154 -51 562T160 1378L307 1430Q291 1332 246 1165T70 565Q289 1066 466 1273T842 1481Q975 1481 1057 1397T1139 1174Q1139 1006 1033 833T737 522Q621 437 493 395T221 352Q198
352 187 352T164 354L219 432Q270 423 308 419T371 414Q485 414 586 467T776 627Q882 754 941 903T1001 1184Q1001 1295 944 1362T791 1430Q557 1430 301 974T-199 -334Z" />
<glyph unicode="Q" glyph-name="Q" horiz-adv-x="1454" d="M274 66Q239 98 222 135T205 219Q205 291 266 344T412 397Q500 397 579 327T729 117Q935 271 1055 502T1176 973Q1176 1195 1083 1313T815 1432Q709 1432 610 1387T422 1253Q267 1100 181 888T94 451Q94
308 137 216T274 66ZM626 61Q577 182 510 247T369 313Q317 313 284 280T250 197Q250 127 313 81T473 35Q504 35 542 41T626 61ZM647 14Q604 2 561 -4T475 -10Q235 -10 88 144T-59 551Q-59 738 28 922T270 1247Q387 1353 527 1408T815 1464Q1047 1464 1193 1313T1339
922Q1339 663 1179 423T756 51Q801 -39 864 -97T1014 -190L930 -272Q861 -263 797 -199T647 14Z" />
<glyph unicode="R" glyph-name="R" horiz-adv-x="1161" d="M-84 0L-203 68Q-63 486 33 825T172 1395L336 1446Q278 1209 198 929T12 324Q286 935 495 1200T907 1466Q1019 1466 1092 1397T1165 1223Q1165 1084 1061 957T758 723Q626 653 475 596T324 524Q324 498
471 376T842 98L762 -4Q510 162 361 296T211 485Q211 523 345 585Q482 647 575 702Q795 833 913 981T1032 1268Q1032 1340 992 1386T889 1432Q685 1432 440 1072T-84 0Z" />
<glyph unicode="S" glyph-name="S" horiz-adv-x="1272" d="M-281 86L-186 190Q-40 110 98 72T377 33Q592 33 722 112T852 319Q852 378 817 430T668 578L485 727Q381 813 330 890T279 1038Q279 1127 353 1218T557 1376Q652 1426 771 1453T1008 1481Q1133 1481 1208
1434T1284 1311Q1284 1251 1225 1173T1047 995L907 1057Q1035 1135 1108 1211T1182 1339Q1182 1392 1134 1420T995 1448Q902 1448 810 1426T633 1360Q523 1305 463 1235T403 1090Q403 1037 440 984T559 864L815 662Q900 594 942 521T985 369Q985 192 815 93T336
-6Q191 -6 36 17T-281 86Z" />
<glyph unicode="T" glyph-name="T" horiz-adv-x="1194" d="M-209 51L-135 152Q-1 82 94 51T270 20Q504 20 655 240T989 1135L1034 1307Q962 1315 885 1319T719 1323Q378 1323 221 1287T63 1171Q63 1107 164 1069T494 1012L428 915Q234 947 131 1012T27 1167Q27
1296 233 1369T809 1442Q913 1442 1012 1435T1206 1415L1135 1135Q1053 810 965 585T786 242Q690 117 537 49T201 -20Q105 -20 3 -3T-209 51Z" />
<glyph unicode="U" glyph-name="U" horiz-adv-x="1343" d="M135 958L25 1047Q133 1239 257 1350T483 1462Q538 1462 569 1424T600 1317Q600 1256 575 1152T500 895L346 430Q312 325 294 252T276 141Q276 93 296 66T354 39Q512 39 735 399T1229 1448H1384Q1223
1001 1105 615T909 -100L774 -41Q838 198 931 497T1147 1163Q888 552 692 273T326 -6Q238 -6 193 40T147 176Q147 230 172 331T246 580L354 903Q374 962 409 1064Q494 1307 494 1368Q494 1396 484 1409T455 1423Q401 1423 313 1297T135 958Z" />
<glyph unicode="V" glyph-name="V" horiz-adv-x="1233" d="M72 969L-25 1073Q75 1277 167 1376T350 1475Q433 1475 474 1415T516 1237Q516 1166 498 1056T434 745L373 481Q353 394 343 318T332 186Q332 113 358 75T434 37Q519 37 630 147T854 455Q974 665 1056
910T1178 1421L1319 1475Q1267 1214 1170 965T936 489Q788 243 654 119T399 -6Q304 -6 251 60T197 244Q197 296 211 388T252 598L356 1069Q375 1150 385 1223T395 1335Q395 1387 379 1413T330 1440Q280 1440 224 1340T72 969Z" />
<glyph unicode="W" glyph-name="W" horiz-adv-x="1864" d="M106 977L20 1075Q116 1267 210 1362T397 1458Q465 1458 503 1392T541 1206Q541 1137 521 1013T461 723L377 354Q357 268 350 221T342 141Q342 103 354 81T389 59Q498 59 691 426T1112 1436H1260Q1145
957 1082 622T1018 170Q1018 113 1041 82T1108 51Q1184 51 1292 149T1489 401Q1608 609 1690 865T1815 1411L1954 1452Q1772 774 1528 383T1051 -8Q974 -8 932 47T889 205Q889 334 939 604T1090 1272Q831 581 654 287T324 -8Q265 -8 237 30T209 152Q209 199 225
294T272 526L383 1010Q406 1111 419 1195T432 1319Q432 1371 419 1398T381 1425Q340 1425 288 1344T106 977Z" />
<glyph unicode="X" glyph-name="X" horiz-adv-x="1124" d="M-236 25Q52 313 216 484T434 721L391 913Q363 1036 316 1172T205 1456L354 1470Q414 1348 462 1199T551 858Q722 1032 977 1335Q1055 1428 1092 1470L1221 1448Q1033 1278 869 1123T561 823L657 428Q678
345 714 243T801 25L645 0Q602 95 568 197T506 410L442 680Q299 520 32 185Q-67 61 -117 0L-236 25Z" />
<glyph unicode="Y" glyph-name="Y" horiz-adv-x="1343" d="M-41 -451L10 -352Q93 -393 163 -413T293 -434Q460 -434 606 -226T918 461L1186 1235Q840 561 617 275T221 -12Q140 -12 95 40T49 186Q49 257 79 365T188 682L324 1032Q373 1160 400 1257T428 1401Q428
1422 420 1433T395 1444Q343 1444 265 1344T59 1012L-18 1114Q99 1295 201 1385T391 1475Q447 1475 477 1431T508 1305Q508 1212 478 1092T387 817L227 412Q195 328 177 251T158 123Q158 74 176 51T233 27Q395 27 653 385T1227 1407L1382 1440L1051 453Q873 -74
682 -278T199 -483Q150 -483 92 -475T-41 -451Z" />
<glyph unicode="Z" glyph-name="Z" horiz-adv-x="1311" d="M1018 125L930 0Q764 21 606 31T295 41Q21 41 -200 13Q-222 10 -227 10Q-239 10 -247 20T-256 45Q-256 95 736 858Q1097 1135 1309 1298Q1137 1332 974 1349T657 1366Q416 1366 259 1322T102 1217Q102
1154 224 1112T539 1069H551L496 983Q295 1004 184 1067T72 1221Q72 1334 274 1403T823 1473Q969 1473 1113 1455T1403 1399V1325Q1236 1195 689 783T-133 129Q22 151 163 161T434 172Q567 172 711 161T1018 125Z" />
<glyph unicode="[" glyph-name="bracketleft" horiz-adv-x="858" d="M-66 -434L465 1466H731V1434H588L74 -401H207V-434H-66Z" />
<glyph unicode="\" glyph-name="backslash" horiz-adv-x="373" d="M-55 1464H4L281 -190H221L-55 1464Z" />
<glyph unicode="]" glyph-name="bracketright" horiz-adv-x="858" d="M625 1466L94 -434H-172V-401H-29L485 1434H352V1466H625Z" />
<glyph unicode="^" glyph-name="asciicircum" horiz-adv-x="2048" d="M940 1462H1106L1632 897H1544L1022 1348L498 897H412L940 1462Z" />
<glyph unicode="_" glyph-name="underscore" horiz-adv-x="1024" d="M0 -383H1024V-483H0V-383Z" />
<glyph unicode="`" glyph-name="grave" horiz-adv-x="1024" d="M391 530Q377 530 342 553T268 612Q225 651 203 683T180 737Q180 760 192 773T225 786Q265 786 284 706Q291 674 297 655Q309 616 357 580T406 541Q406 537 402 534T391 530Z" />
<glyph unicode="a" glyph-name="a" horiz-adv-x="670" d="M199 276Q126 132 53 64T-100 -4Q-158 -4 -191 31T-225 125Q-225 254 -111 358T152 463Q172 463 187 461T219 454L201 403Q177 418 159 425T123 432Q52 432 -23 330T-98 129Q-98 93 -83 74T-39 55Q21 55
86 142T252 446L381 453L266 117Q260 100 257 88T254 68Q254 55 261 49T283 43Q303 43 336 63T418 125L430 104Q376 51 325 24T229 -4Q187 -4 165 15T143 74Q143 88 157 138L158 141L199 276Z" />
<glyph unicode="b" glyph-name="b" horiz-adv-x="600" d="M133 397Q63 397 -10 298T-84 102Q-84 67 -68 48T-20 29Q48 29 124 133T201 330Q201 364 184 380T133 397ZM-168 219L168 1305L307 1346L-23 328Q35 395 90 428T201 461Q267 461 301 428T336 332Q336 204
221 99T-41 -6Q-106 -6 -146 24T-186 104Q-186 134 -182 163T-168 219Z" />
<glyph unicode="c" glyph-name="c" horiz-adv-x="479" d="M164 117L176 94Q100 43 35 18T-84 -8Q-148 -8 -183 24T-219 115Q-219 235 -108 348T129 461Q164 461 198 452T270 424L223 356Q191 395 164 412T106 430Q43 430 -20 335T-84 133Q-84 90 -66 69T-12 47Q23
47 68 65T164 117Z" />
<glyph unicode="d" glyph-name="d" horiz-adv-x="672" d="M238 395Q211 413 190 421T147 430Q61 430 -15 334T-92 123Q-92 88 -79 69T-41 49Q27 49 103 143T238 395ZM252 442L492 1282L633 1323L266 104Q265 99 261 87Q254 62 254 53Q254 45 260 39T274 33Q316
33 390 98Q408 113 416 119L430 98Q372 40 329 15T244 -10Q198 -10 174 10T150 70Q150 95 170 159L172 166L193 231Q130 115 56 53T-94 -10Q-156 -10 -188 24T-221 123Q-221 249 -111 353T139 457Q159 457 185 454T252 442Z" />
<glyph unicode="e" glyph-name="e" horiz-adv-x="524" d="M-102 156Q22 181 99 241T176 371Q176 401 162 416T121 432Q56 432 -8 355T-102 156ZM190 127L201 109Q130 50 67 22T-57 -6Q-133 -6 -174 34T-215 152Q-215 265 -110 363T123 461Q187 461 223 431T260
348Q260 278 172 224T-101 124Q-100 82 -79 61T-18 39Q25 39 78 61T190 127Z" />
<glyph unicode="f" glyph-name="f" horiz-adv-x="446" d="M57 455Q259 725 368 961T477 1362Q477 1401 470 1420T446 1440Q385 1440 292 1206T57 455ZM-360 -467Q-327 -395 -282 -264T-152 137L-219 166L-109 272L-47 496Q91 1005 206 1236T434 1468Q473 1468
491 1433T510 1323Q510 1141 393 906T43 391L-23 178Q40 198 97 228T207 301L221 276Q167 233 105 200T-31 141L-213 -420L-360 -467Z" />
<glyph unicode="g" glyph-name="g" horiz-adv-x="670" d="M92 -74Q-33 -158 -96 -237T-160 -391Q-160 -419 -147 -437T-113 -455Q-63 -455 -24 -391T92 -74ZM393 127L406 109Q368 79 325 51T233 -2Q167 -242 82 -360T-109 -479Q-153 -479 -180 -452T-207 -379Q-207
-303 -131 -219T106 -33L188 236Q115 120 37 58T-113 -4Q-165 -4 -193 29T-221 127Q-221 257 -93 358T209 459Q240 459 279 453T367 434L340 365Q294 398 252 414T170 430Q75 430 -8 324T-92 100Q-92 78 -81 65T-51 51Q6 51 81 132T229 356L332 338L242 33Q287
56 324 79T393 127Z" />
<glyph unicode="h" glyph-name="h" horiz-adv-x="672" d="M-219 2L154 1286L293 1329L-84 109Q6 295 79 375T231 455Q276 455 304 431T332 367Q332 343 327 317T307 252L268 137Q259 110 254 88T248 55Q248 46 255 40T272 33Q292 33 329 59T403 127L422 109Q365
47 316 19T217 -10Q173 -10 150 9T127 68Q127 79 130 94T141 139L186 281Q199 322 203 339T207 367Q207 383 198 392T172 401Q122 401 50 298T-106 2H-219Z" />
<glyph unicode="i" glyph-name="i" horiz-adv-x="377" d="M-45 698Q-45 732 -21 755T37 778Q71 778 94 755T117 698Q117 664 94 640T37 616Q3 616 -21 640T-45 698ZM-88 449L39 461L-61 104Q-64 92 -65 80T-68 61Q-68 48 -61 41T-43 33Q-23 33 14 59T88 127L109
109Q51 47 2 19T-96 -10Q-141 -10 -163 9T-186 68Q-185 89 -176 123Q-173 135 -172 140L-88 449Z" />
<glyph unicode="j" glyph-name="j" horiz-adv-x="338" d="M-59 700Q-59 734 -36 757T23 780Q56 780 79 757T102 700Q102 666 79 642T23 618Q-11 618 -35 642T-59 700ZM-92 440L33 455L-102 6L39 115L49 94L-113 -33Q-187 -286 -235 -380T-336 -475Q-363 -475 -379
-455T-395 -401Q-395 -357 -368 -303T-250 -127L-92 440Z" />
<glyph unicode="k" glyph-name="k" horiz-adv-x="627" d="M-223 0L145 1290L285 1323L-70 150Q28 319 103 390T254 461Q302 461 332 431T362 352Q362 294 304 251T121 170L274 61L199 -14L14 127Q152 209 204 260T256 360Q256 381 242 395T207 410Q144 410 63
308T-119 0H-223Z" />
<glyph unicode="l" glyph-name="l" horiz-adv-x="446" d="M-84 307Q63 839 217 1154T477 1470Q506 1470 520 1439T535 1346Q535 1140 411 900T59 428Q19 302 0 221T-20 102Q-20 71 -11 56T18 41Q44 41 78 58T176 125L190 104Q120 43 66 17T-43 -10Q-87 -10 -109
16T-131 94Q-131 121 -124 158T-98 254L-162 195L-176 215L-84 307ZM80 487Q287 716 397 942T508 1360Q508 1387 501 1403T481 1419Q446 1419 355 1208T80 487Z" />
<glyph unicode="m" glyph-name="m" horiz-adv-x="969" d="M-221 0L-104 422L27 449L-66 156Q18 312 88 383T225 455Q267 455 290 433T313 369Q313 337 304 298T272 205Q339 330 405 392T537 455Q576 455 603 427T631 358Q631 339 624 311T600 233L559 113Q550
85 548 75T545 59Q545 47 550 40T565 33Q588 33 622 56T698 125L719 106Q658 42 612 16T514 -10Q474 -10 451 10T428 63Q428 84 434 112T459 190L483 268Q498 312 503 331T508 367Q508 381 500 391T481 401Q432 401 358 293T209 0H100L195 320Q199 336 202 349T205
369Q205 383 196 392T172 401Q124 401 48 293T-104 0H-221Z" />
<glyph unicode="n" glyph-name="n" horiz-adv-x="672" d="M-106 0H-227L-113 430L29 451L-63 154Q22 317 89 386T231 455Q276 455 304 431T332 367Q332 343 327 317T307 252L268 137Q259 110 254 88T248 55Q248 46 255 40T272 33Q292 33 329 59T403 127L422 109Q365
47 316 19T217 -10Q173 -10 150 9T127 68Q127 79 130 94T141 139L186 281Q199 322 203 339T207 367Q207 383 198 392T172 401Q121 401 48 296T-106 0Z" />
<glyph unicode="o" glyph-name="o" horiz-adv-x="559" d="M94 432Q65 432 44 421T2 383Q-42 325 -71 246T-100 104Q-100 68 -81 46T-31 23Q38 23 99 131T160 365Q160 392 141 412T94 432ZM-221 174Q-221 279 -126 368T92 457Q173 457 224 407T276 276Q276 171
185 84T-20 -4Q-118 -4 -169 41T-221 174Z" />
<glyph unicode="p" glyph-name="p" horiz-adv-x="670" d="M-217 -451L-332 -463L-96 430L37 453L-90 27Q-2 238 91 348T274 459Q325 459 357 425T389 338Q389 213 287 105T61 -4Q45 -4 25 -1T-17 16L-8 49Q-2 47 7 44Q54 27 72 27Q141 27 200 123T260 336Q260
367 249 381T213 395Q127 395 3 158T-217 -451Z" />
<glyph unicode="q" glyph-name="q" horiz-adv-x="672" d="M160 170Q97 86 31 40T-92 -6Q-146 -6 -180 31T-215 129Q-215 260 -93 358T203 457Q226 457 257 452T358 432L332 371Q303 399 264 414T182 430Q132 430 86 401T-6 309Q-45 257 -70 197T-96 104Q-96 76
-81 58T-41 39Q15 39 88 121T217 336L315 299L72 -360Q69 -367 68 -373T66 -385Q66 -392 70 -395T84 -399Q129 -399 186 -293T244 -68Q244 -46 242 -25T236 18L393 117L403 98L281 14Q283 -1 285 -17T287 -49Q287 -207 199 -336T25 -465Q-10 -465 -28 -448T-47
-399Q-47 -369 -20 -300V-300L160 170Z" />
<glyph unicode="r" glyph-name="r" horiz-adv-x="485" d="M-227 0L-113 428L10 449L-72 166Q7 310 76 382T205 455Q238 455 254 435T270 373Q270 354 266 330T254 274L156 258L157 264Q176 347 176 367Q176 380 170 388T156 397Q109 397 33 289T-119 0H-227Z" />
<glyph unicode="s" glyph-name="s" horiz-adv-x="481" d="M-141 211L-158 231L25 416V422Q25 482 48 517T113 553Q134 553 148 541T162 510Q162 487 144 467T59 410Q122 368 152 319T182 207Q182 113 109 53T-76 -8Q-140 -8 -176 11T-213 66Q-213 89 -200 104T-166
119Q-138 119 -99 73T-27 27Q16 27 34 73T53 236Q53 267 48 302T31 383L-141 211Z" />
<glyph unicode="t" glyph-name="t" horiz-adv-x="412" d="M-59 526H-117V555H-49L61 885L193 913L82 555H211V526H76L-56 115Q-61 100 -63 91T-68 70Q-68 56 -63 49T-47 41Q-16 41 68 102Q89 117 100 125L113 102Q43 45 -6 19T-92 -8Q-133 -8 -158 14T-184 72Q-184
89 -182 104T-176 133L-59 526Z" />
<glyph unicode="u" glyph-name="u" horiz-adv-x="666" d="M-92 434L49 455L-60 119Q-64 106 -67 92T-70 70Q-70 60 -62 54T-43 47Q16 47 93 159T229 451H358L256 90Q253 81 252 74T250 59Q250 48 255 44T272 39Q286 39 317 58T397 115L410 94Q351 40 306 17T217
-6Q177 -6 157 11T137 63Q137 72 139 83T147 117L190 276Q128 141 57 68T-86 -6Q-140 -6 -167 16T-195 84Q-195 98 -190 120T-172 178L-92 434Z" />
<glyph unicode="v" glyph-name="v" horiz-adv-x="559" d="M-100 453L16 463Q-26 328 -47 247T-68 133Q-68 94 -53 73T-10 51Q55 51 128 165T236 455L317 463Q250 260 136 126T-72 -8Q-125 -8 -153 31T-182 143Q-182 190 -162 267T-100 453Z" />
<glyph unicode="w" glyph-name="w" horiz-adv-x="819" d="M-98 444L31 453Q-24 326 -54 236T-84 104Q-84 81 -75 68T-47 55Q0 55 61 152T201 446L322 455L311 425Q223 181 223 109Q223 75 235 57T270 39Q335 39 400 148T514 451L592 459Q526 247 425 122T223 -4Q172
-4 146 26T119 115Q119 136 121 161T127 217Q68 102 14 49T-100 -4Q-149 -4 -177 27T-205 111Q-205 157 -177 247T-98 444Z" />
<glyph unicode="x" glyph-name="x" horiz-adv-x="483" d="M-285 2L-47 209L-102 438L16 453L53 297L209 453H281L61 264L127 2H4L-39 170L-211 2H-285Z" />
<glyph unicode="y" glyph-name="y" horiz-adv-x="670" d="M90 -63Q-27 -134 -92 -218T-158 -379Q-158 -407 -146 -423T-115 -440Q-69 -440 -26 -363T90 -63ZM-112 440L25 457Q-37 280 -62 195T-88 84Q-88 67 -82 58T-63 49Q-5 49 78 158T238 451H362L252 53Q286
71 319 91T389 137L399 115Q362 87 323 63T240 16Q176 -223 89 -345T-104 -467Q-154 -467 -180 -440T-207 -362Q-207 -281 -126 -192T98 -29L207 319Q130 163 46 79T-117 -6Q-157 -6 -179 20T-201 94Q-201 164 -116 428L-112 440Z" />
<glyph unicode="z" glyph-name="z" horiz-adv-x="485" d="M-256 0V45L131 348H2Q-45 348 -81 346T-147 338L-109 446H238V397L-133 102H66Q98 102 129 104T188 108L139 0H-256Z" />
<glyph unicode="{" glyph-name="braceleft" horiz-adv-x="1024" d="M846 1516L845 1466Q699 1465 646 1412T592 1202V1057Q592 832 529 749T295 635Q466 603 529 521T592 213V68Q592 -88 645 -140T845 -195L846 -244H836Q621 -244 541 -171T461 102V319Q461 475
401 535T176 608V664Q344 679 402 737T461 952V1169Q461 1369 541 1442T836 1516H846Z" />
<glyph unicode="|" glyph-name="bar" horiz-adv-x="1024" d="M459 1565H567V-483H459V1565Z" />
<glyph unicode="}" glyph-name="braceright" horiz-adv-x="1024" d="M178 1516H188Q404 1516 484 1442T565 1169V952Q565 795 623 737T848 664V608Q683 595 624 536T565 319V102Q565 -97 485 -170T188 -244H178L179 -195Q327 -193 380 -140T434 68V213Q434 439
496 521T729 635Q559 666 497 748T434 1057V1202Q434 1357 381 1410T179 1466L178 1516Z" />
<glyph unicode="~" glyph-name="asciitilde" horiz-adv-x="1706" d="M1530 750V637Q1428 565 1332 530T1143 494Q1044 494 883 551Q863 558 854 561Q849 563 838 567Q662 631 565 631Q482 631 390 593T178 471V584Q284 657 380 693T565 729Q669 729 837 668Q848
664 855 661Q864 658 886 650Q1053 590 1143 590Q1228 590 1320 628T1530 750Z" />
</font>
</defs>
</svg>
