<svg width="261" height="101" viewBox="0 0 261 101" fill="none" xmlns="http://www.w3.org/2000/svg">
<path d="M46.5995 89.4357C46.5995 95.0357 51.0795 99.5157 56.6795 99.5157H60.1795C65.7795 99.5157 70.2595 95.0357 70.2595 89.4357V78.2357H76.6995C82.2995 78.2357 86.7795 73.7557 86.7795 68.1557V65.2157C86.7795 59.6157 82.2995 55.1357 76.6995 55.1357H70.2595V11.4557C70.2595 5.85574 65.7795 1.37574 60.1795 1.37574H55.9795C52.8995 1.37574 50.0995 2.63574 48.1395 5.01575L2.63953 60.1757C1.09953 61.8557 0.259531 64.2357 0.259531 66.4757V68.1557C0.259531 73.7557 4.73953 78.2357 10.3395 78.2357H46.5995V89.4357ZM46.5995 43.7957V55.1357H37.2195L46.5995 43.7957ZM130.514 0.25574C118.334 0.25574 108.534 4.03574 101.534 11.8757C94.8142 19.2957 91.3142 29.5157 91.3142 42.1157V58.6357C91.3142 71.3757 94.8142 81.5957 101.674 89.0157C108.674 96.7157 118.474 100.636 130.514 100.636C142.694 100.636 152.494 96.7157 159.494 89.0157C166.214 81.5957 169.714 71.3757 169.714 58.6357V42.1157C169.714 29.5157 166.214 19.2957 159.354 11.7357C152.354 4.03574 142.554 0.25574 130.514 0.25574ZM115.114 42.1157C115.114 35.5357 116.374 30.6357 119.174 27.4157C120.714 25.5957 123.514 23.2157 130.514 23.2157C137.374 23.2157 140.314 25.5957 141.714 27.4157C144.514 30.6357 145.914 35.5357 145.914 42.1157V58.4957C145.914 65.0757 144.514 70.1157 141.714 73.3357C140.314 75.1557 137.514 77.5357 130.514 77.5357C123.654 77.5357 120.714 75.1557 119.314 73.3357C116.514 69.9757 115.114 65.0757 115.114 58.4957V42.1157ZM220.506 89.4357C220.506 95.0357 224.986 99.5157 230.586 99.5157H234.086C239.686 99.5157 244.166 95.0357 244.166 89.4357V78.2357H250.606C256.206 78.2357 260.686 73.7557 260.686 68.1557V65.2157C260.686 59.6157 256.206 55.1357 250.606 55.1357H244.166V11.4557C244.166 5.85574 239.686 1.37574 234.086 1.37574H229.886C226.806 1.37574 224.006 2.63574 222.046 5.01575L176.546 60.1757C175.006 61.8557 174.166 64.2357 174.166 66.4757V68.1557C174.166 73.7557 178.646 78.2357 184.246 78.2357H220.506V89.4357ZM220.506 43.7957V55.1357H211.126L220.506 43.7957Z" fill="#FF6927"/>
</svg>
