<svg width="317" height="254" viewBox="0 0 317 254" fill="none" xmlns="http://www.w3.org/2000/svg">
<path d="M219.586 14.5143C217.283 14.0535 215.556 11.2889 216.016 8.52427C216.362 5.75964 218.549 3.91656 220.967 4.37733C223.27 4.8381 224.998 7.60272 224.537 10.3673C224.192 13.132 222.004 14.9751 219.586 14.5143Z" stroke="#1E2021" stroke-miterlimit="10"/>
<path d="M169.266 10.7129C166.963 10.2521 165.236 7.4875 165.697 4.72287C166.042 1.95825 168.23 0.115164 170.648 0.575935C172.951 1.03671 174.678 3.80133 174.218 6.56596C173.757 9.44578 171.569 11.2889 169.266 10.7129Z" stroke="#1E2021" stroke-miterlimit="10"/>
<path d="M118.141 19.3524C115.838 18.8916 114.111 16.127 114.571 13.3623C114.917 10.5977 117.105 8.75463 119.523 9.2154C121.826 9.67617 123.553 12.4408 123.092 15.2054C122.632 17.97 120.444 19.8131 118.141 19.3524Z" stroke="#1E2021" stroke-miterlimit="10"/>
<path d="M7.13911 65.5447C-2.6484 70.8436 -0.115159 78.4463 1.95749 80.4046C4.03014 82.3628 8.52087 79.5982 8.52087 79.5982C8.52087 79.5982 219.355 -61.7433 304.679 71.8803C305.831 73.6082 307.097 75.1057 305.255 71.3043C291.898 45.1556 224.422 -52.5279 7.13911 65.5447Z" fill="#0E0F10"/>
<path d="M2.18783 76.8335C14.1631 70.4979 25.793 63.4712 37.8834 57.0204C49.9739 50.5696 62.4098 45.0403 74.8457 39.6263C83.1363 36.0553 91.6571 32.9451 100.293 30.2957C102.481 28.5678 147.964 13.4775 168.23 12.0952C188.381 10.7129 208.762 10.8281 228.337 16.3573C228.452 16.3573 228.567 16.3573 228.682 16.4725C243.766 19.6979 257.584 25.112 270.941 34.673C277.274 39.1655 284.989 43.658 289.94 50.3392C290.056 50.4544 290.171 50.5696 290.171 50.6848C292.474 52.8734 294.777 55.2925 296.964 57.8267C271.402 23.0385 195.635 -36.7465 7.2543 65.5447C-0.115114 69.5764 -0.460556 74.7601 0.575768 77.9855C1.03636 77.5247 1.61209 77.0639 2.18783 76.8335Z" fill="#1E2021"/>
<path d="M95.2266 19.122C95.2266 19.122 97.9902 37.4377 96.0326 44.1188C94.0751 50.8 88.0875 49.4177 86.5906 45.2708C85.0937 41.0086 81.9847 27.6463 81.7544 20.0436L95.2266 19.122Z" fill="#1E2021"/>
<path d="M97.2994 31.7932C97.2994 32.0236 97.2994 32.1388 97.1842 32.254C96.9539 34.097 96.6085 35.8249 96.263 37.668C95.8024 39.6263 95.1116 41.3542 94.4207 43.0821C93.7298 44.9252 92.9238 46.3075 91.8875 47.5746C93.9601 49.8784 97.5296 48.9569 98.6811 42.5061C99.372 38.4744 98.9114 31.2172 98.4508 25.112C98.1054 27.3007 97.6448 29.6045 97.2994 31.7932Z" fill="#0E0F10"/>
<path d="M85.3241 28.4526C81.5242 27.9919 78.5304 23.7297 78.6455 19.0068C78.7607 14.2839 82.1 10.7129 85.8998 11.1737C89.6997 11.6345 92.6935 15.8966 92.5783 20.6195C92.3481 25.4576 89.1239 28.9134 85.3241 28.4526Z" fill="#1E2021"/>
<path d="M85.3239 27.9918C81.7543 27.5311 78.8756 23.4993 79.1059 19.122C79.2211 14.6295 82.3301 11.4041 85.8996 11.7497C89.4692 12.2104 92.3479 16.2422 92.1176 20.6195C92.0024 25.112 88.8934 28.4526 85.3239 27.9918Z" fill="#414042"/>
<path d="M85.3241 25.8032C82.6757 25.4576 80.6031 22.5778 80.7182 19.3524C80.8333 16.127 83.0211 13.7079 85.6695 14.0535C88.3179 14.3991 90.3906 17.2789 90.2754 20.5043C90.1603 23.6145 87.9725 26.0336 85.3241 25.8032Z" fill="#1E2021"/>
<path d="M85.4391 24.536C83.3665 24.3056 81.7544 22.0018 81.7544 19.3524C81.8695 16.7029 83.5968 14.8598 85.6694 15.0902C87.7421 15.3206 89.3541 17.6245 89.3541 20.2739C89.239 22.9233 87.5118 24.7664 85.4391 24.536Z" fill="#414042"/>
<path d="M84.6332 16.2422C86.3604 16.4726 87.627 18.2005 87.627 20.1587C87.627 20.9651 87.2816 21.7714 86.821 22.2322C87.7422 21.7714 88.3179 20.7347 88.4331 19.4676C88.5482 17.5093 87.1664 15.7814 85.4392 15.551C84.4029 15.4358 83.5969 15.7814 82.906 16.5878C83.4817 16.2422 84.0575 16.127 84.6332 16.2422Z" fill="#6D6E71"/>
<path d="M89.4693 22.4626C89.4693 22.4626 89.5845 22.3474 89.8148 22.0018C90.0451 21.7715 90.2754 21.3107 90.6208 20.7347C90.8511 20.1588 91.0814 19.3524 91.0814 18.5461C91.0814 17.7397 90.9662 16.703 90.5057 15.6662C90.2754 15.2055 90.0451 14.6295 89.8148 14.2839C89.5845 13.8232 89.239 13.4776 88.8936 13.0168C88.2027 12.2105 87.5118 11.7497 86.9361 11.4041C86.2452 11.0585 85.7846 10.8281 85.324 10.8281C84.9786 10.713 84.7483 10.8281 84.7483 10.8281C84.7483 10.8281 84.9786 10.713 85.324 10.713C85.6695 10.713 86.2452 10.8281 87.0512 11.1737C87.7421 11.5193 88.5482 12.0953 89.239 12.7864C89.5845 13.132 90.0451 13.5928 90.2754 14.0535C90.6208 14.5143 90.8511 15.0903 91.0814 15.6662C91.542 16.703 91.6571 17.8549 91.542 18.7764C91.4268 19.698 91.1965 20.5043 90.8511 20.9651C90.5057 21.5411 90.1602 21.8866 89.9299 22.2322C89.5845 22.3474 89.4693 22.4626 89.4693 22.4626Z" fill="#6D6E71"/>
<path d="M99.2569 47.5746L99.6024 53.795L105.935 55.1773L105.475 57.8267L97.2994 56.0988L96.1479 47.6898L99.2569 47.5746Z" fill="#0E0F10"/>
<path d="M106.626 63.2408C105.82 63.1256 105.244 62.0889 105.244 60.8218L105.59 53.2191C105.59 52.0671 106.396 51.1456 107.202 51.2608C108.008 51.376 108.584 52.4127 108.584 53.6798L108.238 61.2826C108.123 62.4345 107.432 63.356 106.626 63.2408Z" fill="#0E0F10"/>
<path d="M106.972 51.0304C106.972 53.3343 106.741 55.6381 106.741 57.8268C106.741 59.5547 106.741 61.3978 106.857 63.1257C107.547 63.0105 108.123 62.2041 108.123 61.0522L108.469 53.3343C108.469 52.0671 107.893 51.0304 107.087 50.9152C107.202 51.0304 107.087 51.0304 106.972 51.0304Z" fill="#1E2021"/>
<path d="M308.94 74.9905C306.637 74.5297 304.91 71.7651 305.37 69.0005C305.716 66.2358 307.903 64.3928 310.321 64.8535C312.624 65.3143 314.352 68.0789 313.891 70.8435C313.546 73.6082 311.358 75.5664 308.94 74.9905Z" stroke="#1E2021" stroke-miterlimit="10"/>
<path d="M266.681 30.6412C264.378 30.1805 262.651 27.4158 263.111 24.6512C263.457 21.8866 265.644 20.0435 268.062 20.5043C270.365 20.9651 272.093 23.7297 271.632 26.4943C271.287 29.3741 268.984 31.2172 266.681 30.6412Z" stroke="#1E2021" stroke-miterlimit="10"/>
<path d="M95.5722 23.3841C103.633 19.4676 109.044 16.4725 117.565 14.3991C135.183 10.1369 152.8 6.91154 170.648 5.18365C183.199 3.91653 195.98 3.34057 208.416 5.29884C232.482 9.2154 259.427 16.9333 280.038 33.9818C284.989 38.1288 289.941 42.1605 294.316 47.229C301.34 55.4077 308.019 64.8535 312.394 75.6816C315.043 82.1324 316.194 89.1592 316.424 96.4163C316.885 111.507 316.77 126.712 311.128 140.305C308.249 147.332 299.267 193.639 287.407 200.205C237.779 227.851 159.594 185.575 161.436 165.186C162.358 154.589 184.926 148.138 198.514 147.101C216.131 145.834 236.858 152.63 247.912 168.988C250.56 172.904 257.354 182.926 255.166 194.906C252.287 210.457 236.512 218.636 234.44 219.788C234.44 219.788 231.791 221.17 229.028 221.976C208.071 228.773 152.455 210.457 152.685 187.879C152.8 175.323 170.072 165.647 180.666 162.307C201.047 155.971 227.185 163.919 230.525 176.59C230.755 177.282 231.1 179.24 230.755 181.544C227.07 203.315 159.018 227.045 140.94 205.965C131.613 195.136 134.953 171.983 148.194 158.505C162.588 143.761 187.92 141.572 201.277 153.322C212.677 163.343 211.756 180.622 210.95 193.754C210.489 202.278 210.028 208.96 205.077 214.719C195.405 226.123 174.448 227.045 170.994 220.824C167.194 213.913 181.011 191.105 200.586 190.529C214.98 190.183 228.337 202.048 230.409 214.489C232.022 224.511 226.264 234.648 223.616 239.14C222.119 241.79 220.852 243.978 218.664 246.167C209.568 255.152 194.484 253.539 189.072 252.963C170.648 251.005 151.534 238.449 141.17 221.516C121.25 188.801 229.028 122.45 245.033 148.829C247.797 153.322 262.305 178.549 252.748 203.085C238.815 238.564 185.157 244.209 153.606 247.549C125.626 250.544 111.578 214.028 94.8813 207.001C83.1363 202.163 73.9246 194.791 65.0582 198.823C57.804 202.163 51.7012 212.991 54.9253 218.981C55.6162 220.133 56.8828 221.746 59.6463 222.783" stroke="#242424" stroke-width="0.75" stroke-miterlimit="10"/>
<path d="M56.4221 221.17L71.2761 230.616" stroke="#3695BA" stroke-width="1.25" stroke-miterlimit="10"/>
<path d="M71.276 230.616C75.0758 233.035 75.997 236.836 73.4638 239.025C70.9305 241.329 65.7489 241.214 62.0642 238.795" stroke="#3695BA" stroke-width="1.25" stroke-miterlimit="10"/>
</svg>
